# xmcd CD database file
#
# Track frame offsets:
#	150
#	9920
#	21480
#	34790
#
# Disc length: 619 seconds
#
# Revision: 2
# Processed by: cddbd v1.4PL0 Copyright (c) Steve Scherf et al.
# Submitted via: CDex 1.40Beta9
#
DISCID=25026904
DTITLE=Nat King Cole - More
DYEAR=1900
DGENRE=Blues
TTITLE0=More
TTITLE1=Makin' Whoopie
TTITLE2=Route 66
TTITLE3=Straighten up and fly
EXTD=ID3G: 0
EXTT0=
EXTT1=
EXTT2=
EXTT3=
PLAYORDER=
